#!OML:ASF I:\Random Stuff\random\construction\7_22_03\Session 2\subj1.ASF
:FULLY-SPECIFIED
:DEGREES
1402
root 5.12849 17.771 0.37707 33.5447 95.4836 25.9291
lowerback -1.06719 1.43501 -3.59442
upperback -1.39955 1.94601 0.854931
thorax -0.988207 1.01924 2.89336
lowerneck -24.288 -4.9167 -0.713038
upperneck 43.3299 -10.0396 9.32971
head 23.9615 -1.72122 3.01846
rclavicle 1.56543e-014 9.34288e-015
rhumerus 35.8219 45.7745 -50.1994
rradius 106.95
rwrist -18.5951
rhand -12.8029 20.0613
rfingers 7.12502
rthumb 13.2832 -9.49538
lclavicle 1.56543e-014 9.34288e-015
lhumerus -12.8196 -15.8395 67.6928
lradius 129.614
lwrist 40.7929
lhand 3.34564 42.4351
lfingers 7.12502
lthumb 28.7908 790.235
rfemur 1.85571 30.3745 23.6238
rtibia -1.43125e-014
rfoot -4.55835 -54.5772
rtoes 8.59339
lfemur -16.9058 -12.7304 -13.2921
ltibia 22.8983
lfoot -11.9732 11.0234
ltoes -31.6566
1403
root 5.10807 17.7744 0.377186 35.1955 95.2948 27.4823
lowerback -1.03596 1.42787 -3.6534
upperback -1.35638 1.93451 0.745496
thorax -0.958633 1.01175 2.81373
lowerneck -24.5171 -5.40725 -2.06736
upperneck 43.4029 -10.6825 10.4214
head 24.652 -2.05 3.79433
rclavicle 1.67973e-014 -1.35174e-014
rhumerus 36.2659 45.9084 -50.2345
rradius 107.054
rwrist -19.4107
rhand -11.9276 19.4441
rfingers 7.12502
rthumb 14.1268 -10.0556
lclavicle 1.67973e-014 -1.35174e-014
lhumerus -13.0948 -16.1348 68.7384
lradius 129.818
lwrist 37.9828
lhand 3.33811 41.5262
lfingers 7.12502
lthumb 28.7836 789.327
rfemur 1.58462 30.6193 23.5171
rtibia -7.95139e-015
rfoot -3.85388 -54.613
rtoes 7.87475
lfemur -17.0369 -12.685 -13.2084
ltibia 22.9082
lfoot -11.9522 11.2012
ltoes -31.5682
1404
root 5.08752 17.7768 0.375698 36.8178 95.0886 29.012
lowerback -1.01155 1.40625 -3.72887
upperback -1.33082 1.90434 0.659323
thorax -0.943349 0.995934 2.76727
lowerneck -24.4492 -5.45165 -1.91854
upperneck 43.2388 -10.7719 10.2553
head 24.407 -2.09031 3.6057
rclavicle -2.76808e-014 1.98785e-015
rhumerus 36.7445 46.1441 -50.1064
rradius 107.194
rwrist -20.1335
rhand -11.3468 18.9543
rfingers 7.12502
rthumb 14.6864 -10.5055
lclavicle -2.76808e-014 1.98785e-015
lhumerus -13.3346 -16.5213 69.6801
lradius 129.953
lwrist 35.452
lhand 3.43035 40.7486
lfingers 7.12502
lthumb 28.8717 788.534
rfemur 1.3245 30.8732 23.3868
rtibia -9.54166e-015
rfoot -3.04489 -54.5982
rtoes 6.71615
lfemur -17.1508 -12.6136 -13.1602
ltibia 22.9013
lfoot -11.9344 11.3416
ltoes -31.4595
1405
root 5.06604 17.7785 0.375781 38.1997 94.8967 30.3198
lowerback -0.947584 1.39013 -3.84654
upperback -1.33093 1.87998 0.581513
thorax -0.978828 0.985012 2.75154
lowerneck -24.5487 -5.69021 -2.48684
upperneck 43.3593 -11.0507 10.6013
head 24.7909 -2.24604 3.87926
rclavicle -1.58282e-014 -9.54166e-015
rhumerus 37.2191 46.359 -49.8725
rradius 107.295
rwrist -21.0759
rhand -10.9158 18.6585
rfingers 7.12502
rthumb 15.1016 -10.7706
lclavicle -1.58282e-014 -9.54166e-015
lhumerus -13.5893 -17.1156 70.4934
lradius 130.079
lwrist 32.7079
lhand 3.32462 40.1106
lfingers 7.12502
lthumb 28.7707 787.914
rfemur 1.08616 31.0989 23.2509
rtibia 7.95139e-015
rfoot -2.22905 -54.5767
rtoes 5.446
lfemur -17.2709 -12.3874 -13.1503
ltibia 22.9044
lfoot -11.8702 11.3165
ltoes -31.4008
1406
root 5.04483 17.7806 0.378789 39.5793 94.7773 31.6412
lowerback -0.883571 1.36428 -3.96064
upperback -1.32103 1.84275 0.534904
thorax -1.00396 0.967446 2.76618
lowerneck -24.3645 -5.71694 -2.35902
upperneck 43.1133 -10.9355 10.0802
head 24.284 -2.2749 3.51581
rclavicle 1.0635e-014 5.96354e-015
rhumerus 37.7302 46.5305 -49.5511
rradius 107.314
rwrist -21.965
rhand -10.6327 18.4975
rfingers 7.12502
rthumb 15.3743 -10.9109
lclavicle 1.0635e-014 5.96354e-015
lhumerus -13.7182 -17.7945 71.2085
lradius 130.149
lwrist 29.5456
lhand 3.02258 39.5278
lfingers 7.12502
lthumb 28.4821 787.379
rfemur 0.873343 31.2649 23.1733
rtibia -1.59028e-015
rfoot -1.62072 -54.5617
rtoes 4.60671
lfemur -17.4051 -12.2119 -13.0917
ltibia 22.9383
lfoot -11.7946 11.3028
ltoes -31.319
1407
root 5.02424 17.7822 0.383923 41.3714 94.6963 33.3877
lowerback -0.806667 1.33015 -4.0526
upperback -1.31599 1.79386 0.521677
thorax -1.04071 0.944385 2.80246
lowerneck -24.2402 -5.91722 -2.60609
upperneck 43.0112 -11.059 9.869
head 24.1306 -2.40833 3.38327
rclavicle 2.08724e-015 -1.59028e-014
rhumerus 38.1686 46.6248 -49.237
rradius 107.345
rwrist -22.5104
rhand -10.153 18.2514
rfingers 7.12502
rthumb 15.8363 -11.1209
lclavicle 2.08724e-015 -1.59028e-014
lhumerus -13.7372 -18.515 71.7805
lradius 130.081
lwrist 26.1841
lhand 2.3344 38.6894
lfingers 7.12502
lthumb 27.8244 786.649
rfemur 0.694821 31.4227 23.1697
rtibia 0
rfoot -1.4461 -54.5218
rtoes 4.5312
lfemur -17.536 -12.0996 -12.9697
ltibia 23.0033
lfoot -11.7848 11.3393
ltoes -31.1673
1408
root 5.00334 17.7818 0.387718 43.5477 94.667 35.5376
lowerback -0.760948 1.27927 -4.02631
upperback -1.28036 1.72403 0.518148
thorax -1.02326 0.90799 2.78392
lowerneck -24.066 -6.05554 -2.72098
upperneck 42.765 -11.106 9.57003
head 23.7682 -2.51284 3.17509
rclavicle 1.28713e-014 -1.27222e-014
rhumerus 38.5356 46.5861 -48.9532
rradius 107.374
rwrist -22.5994
rhand -9.356 17.9797
rfingers 7.12502
rthumb 16.6037 -11.3301
lclavicle 1.28713e-014 -1.27222e-014
lhumerus -13.6614 -19.1909 72.1983
lradius 129.94
lwrist 23.1292
lhand 1.12468 37.8654
lfingers 7.12502
lthumb 26.6672 786.007
rfemur 0.561324 31.5643 23.2378
rtibia -5.56597e-015
rfoot -1.56178 -54.4678
rtoes 4.80896
lfemur -17.6623 -12.0138 -12.7989
ltibia 23.0816
lfoot -11.8121 11.3675
ltoes -31.1305
1409
root 4.9841 17.7803 0.388318 45.4515 94.6259 37.4158
lowerback -0.787403 1.21036 -3.945
upperback -1.21959 1.63341 0.494874
thorax -0.935699 0.858729 2.71645
lowerneck -23.8443 -6.24152 -3.05854
upperneck 42.3917 -11.1351 9.30131
head 23.3123 -2.65943 3.02354
rclavicle 2.5842e-015 7.55382e-015
rhumerus 38.6626 46.4581 -48.9515
rradius 107.299
rwrist -22.3065
rhand -8.52691 17.8386
rfingers 7.12502
rthumb 17.4018 -11.4024
lclavicle 2.5842e-015 7.55382e-015
lhumerus -13.5347 -19.6224 72.4958
lradius 129.808
lwrist 20.5943
lhand -0.145676 37.2232
lfingers 7.12502
lthumb 25.4508 785.544
rfemur 0.440315 31.7015 23.263
rtibia 7.15625e-015
rfoot -1.64859 -54.4366
rtoes 4.98887
lfemur -17.7729 -12.2183 -12.6474
ltibia 23.1509
lfoot -11.8137 11.6597
ltoes -31.0836
1410
root 4.96574 17.7803 0.389152 47.195 94.5345 39.1427
lowerback -0.775679 1.12749 -3.96135
upperback -1.19013 1.52261 0.498577
thorax -0.904064 0.802218 2.73013
lowerneck -23.6154 -6.45095 -3.47688
upperneck 42.0258 -11.1399 8.97265
head 22.8739 -2.82089 2.86814
rclavicle -2.56929e-014 -7.55382e-015
rhumerus 38.4824 46.3145 -49.2005
rradius 107.146
rwrist -22.1324
rhand -7.78138 17.7915
rfingers 7.12502
rthumb 18.1192 -11.3845
lclavicle -2.56929e-014 -7.55382e-015
lhumerus -13.5324 -19.832 72.732
lradius 129.678
lwrist 18.1723
lhand -1.55746 36.3896
lfingers 7.12502
lthumb 24.0978 784.896
rfemur 0.321217 31.8648 23.2391
rtibia -2.38542e-015
rfoot -1.75091 -54.4177
rtoes 5.30549
lfemur -17.8298 -12.5986 -12.5243
ltibia 23.1857
lfoot -11.9077 12.1304
ltoes -30.976
1411
root 4.9476 17.7821 0.389211 48.5539 94.4491 40.4934
lowerback -0.729313 1.02136 -4.03277
upperback -1.16677 1.37948 0.536227
thorax -0.897843 0.730799 2.80895
lowerneck -23.5031 -6.9107 -4.42289
upperneck 41.8427 -11.452 8.95692
head 22.8311 -3.12864 2.93397
rclavicle 3.03147e-015 -1.19271e-015
rhumerus 38.228 46.1847 -49.3524
rradius 106.978
rwrist -22.3826
rhand -7.14264 17.7761
rfingers 7.12502
rthumb 18.7336 -11.3418
lclavicle 3.03147e-015 -1.19271e-015
lhumerus -13.6348 -19.9885 72.9185
lradius 129.543
lwrist 15.3356
lhand -3.38714 35.4661
lfingers 7.12502
lthumb 22.3424 784.194
rfemur 0.205457 32.0003 23.1894
rtibia -1.59028e-015
rfoot -1.81376 -54.4068
rtoes 5.51439
lfemur -17.8421 -12.827 -12.4495
ltibia 23.156
lfoot -12.0748 12.4136
ltoes -31.2548
1412
root 4.9308 17.7841 0.387246 49.5495 94.3396 41.4701
lowerback -0.68594 0.908257 -4.09821
upperback -1.15905 1.22686 0.54604
thorax -0.903928 0.655019 2.8558
lowerneck -22.9856 -7.24784 -4.63419
upperneck 41.6122 -11.6344 8.3256
head 21.8922 -3.35922 2.52276
rclavicle -2.04251e-014 2.78299e-015
rhumerus 37.9591 46.1306 -49.4342
rradius 106.804
rwrist -22.9768
rhand -6.59143 17.7292
rfingers 7.12502
rthumb 19.2637 -11.3367
lclavicle -2.04251e-014 2.78299e-015
lhumerus -13.7597 -20.1876 73.0106
lradius 129.429
lwrist 12.2105
lhand -5.5058 34.715
lfingers 7.12502
lthumb 20.3074 783.673
rfemur 0.0742112 32.1287 23.084
rtibia -2.38542e-015
rfoot -1.33551 -54.3952
rtoes 4.88632
lfemur -17.8392 -12.9684 -12.45
ltibia 23.0664
lfoot -12.0249 12.6634
ltoes -31.4585
1413
root 4.91588 17.7857 0.386605 50.6923 94.1828 42.5861
lowerback -0.64286 0.778997 -4.21818
upperback -1.18636 1.05239 0.55675
thorax -0.944824 0.570312 2.93411
lowerneck -22.563 -7.67327 -5.13309
upperneck 41.0867 -11.8729 7.79375
head 21.3704 -3.66508 2.22756
rclavicle -1.8487e-014 1.70955e-014
rhumerus 37.8004 46.1936 -49.4234
rradius 106.596
rwrist -23.8511
rhand -6.00509 17.7638
rfingers 7.12502
rthumb 19.8275 -11.2449
lclavicle -1.8487e-014 1.70955e-014
lhumerus -13.908 -20.3859 73.036
lradius 129.342
lwrist 9.20169
lhand -7.66864 34.0122
lfingers 7.12502
lthumb 18.2277 783.178
rfemur -0.0561479 32.2933 22.9526
rtibia 7.95139e-015
rfoot -0.802189 -54.3785
rtoes 4.16081
lfemur -17.809 -13.1999 -12.475
ltibia 22.9291
lfoot -11.7863 13.0905
ltoes -31.1419
